<svg xmlns="http://www.w3.org/2000/svg" viewBox="0 0 604.44456 140.32458"><title>Asset 1</title><g id="Layer_2" data-name="Layer 2"><g id="Layer_4" data-name="Layer 4"><path d="M584.53885,41.97281v1.57745H587.635v7.88066h1.87292V43.55026h3.09317V41.97281Zm17.21919,0L599.329,48.7417l-2.41715-6.76889h-2.7069v9.45811h1.73537V43.799l2.6395,7.63193h1.516l2.61643-7.63193v7.63193h1.73235V41.97281Z" style="fill:#747678"/><path d="M98.86088,84.59062V81.8193A21.34341,21.34341,0,0,0,77.542,60.50305H21.31623A21.34283,21.34283,0,0,0,0,81.8193v2.77132a21.34277,21.34277,0,0,0,21.31623,21.31595H77.539A10.3425,10.3425,0,0,1,87.87208,116.237v2.76833A10.3425,10.3425,0,0,1,77.539,129.33577H21.31623a10.34192,10.34192,0,0,1-10.33042-10.33044V116.237H0v2.76833a21.34347,21.34347,0,0,0,21.31623,21.31924H77.539a21.34468,21.34468,0,0,0,21.32192-21.31924V116.237A21.34206,21.34206,0,0,0,77.542,94.91806H21.31623A10.33955,10.33955,0,0,1,10.98581,84.59062V81.8193A10.33936,10.33936,0,0,1,21.31623,71.49186H77.542A10.33738,10.33738,0,0,1,87.87208,81.8193v2.77132Z" style="fill:#747678"/><path d="M448.73734,96.09156A21.16982,21.16982,0,0,0,452.135,84.59062V81.8193a21.34252,21.34252,0,0,0-21.31924-21.31625H385.59951A21.33824,21.33824,0,0,0,364.28326,81.8193v46.70887h.01768v11.05024h10.98881v-23.508a10.32777,10.32777,0,0,1,10.30976-10.16382h56.22271A10.32864,10.32864,0,0,1,452.135,116.07039h-.003v23.508h10.98581V116.237h.02068A21.33656,21.33656,0,0,0,448.73734,96.09156Zm-19.11249-1.1735H385.59951a21.183,21.183,0,0,0-10.33044,2.68352V81.8193a10.33745,10.33745,0,0,1,10.33044-10.32744h45.21623A10.33487,10.33487,0,0,1,441.14317,81.8193v2.77132a10.33506,10.33506,0,0,1-10.32744,10.32744Z" style="fill:#747678"/><path d="M264.18593,71.49186A10.3397,10.3397,0,0,0,253.85549,81.8163v37.189a10.3429,10.3429,0,0,0,10.33044,10.33044h56.18316a10.34386,10.34386,0,0,0,10.33044-10.33044V81.8163a10.34066,10.34066,0,0,0-10.33044-10.32444Zm56.18316,68.83272H264.18593a21.34571,21.34571,0,0,1-21.32224-21.31924V81.8163A21.34,21.34,0,0,1,264.18593,60.506h56.18316A21.33932,21.33932,0,0,1,341.68833,81.8163v37.189a21.34508,21.34508,0,0,1-21.31924,21.31924" style="fill:#747678"/><path d="M209.28715,116.237v2.76563A10.34514,10.34514,0,0,1,198.957,129.33577H142.77236a10.34027,10.34027,0,0,1-10.32894-10.33313V81.8193a10.33521,10.33521,0,0,1,10.32894-10.32744H198.957A10.34008,10.34008,0,0,1,209.28715,81.8193v2.77132H220.276V81.8193A21.34419,21.34419,0,0,0,198.957,60.50305H142.77236A21.3438,21.3438,0,0,0,121.45162,81.8193v37.18334a21.34308,21.34308,0,0,0,21.32074,21.32194H198.957A21.34347,21.34347,0,0,0,220.276,119.00264V116.237Z" style="fill:#747678"/><path d="M507.05264,71.49186h72.51713V60.50305H507.05264A21.34188,21.34188,0,0,0,485.73639,81.8193v37.18334a21.34116,21.34116,0,0,0,21.31625,21.32194h72.51713V129.33577H507.05264a10.34443,10.34443,0,0,1-10.33044-10.33313V105.90657h66.51809V94.92076H496.7222V81.8193a10.33937,10.33937,0,0,1,10.33044-10.32744" style="fill:#747678"/><path d="M213.85142,36.78383a8.07432,8.07432,0,0,0,7.13271-8.03778,6.818,6.818,0,0,0-2.703-5.63583,7.96388,7.96388,0,0,0-4.42967-1.64741c-.59358,0-1.72375-.009-1.72375-.009h-2.60231a2.54507,2.54507,0,0,1-2.82921-2.37685,2.42519,2.42519,0,0,1,2.52776-2.47757h11.06915V11.341H208.06577a8.07475,8.07475,0,0,0-7.13234,8.03813,6.818,6.818,0,0,0,2.703,5.63583,7.96382,7.96382,0,0,0,4.42931,1.64741c.36812,0,1.86786.00358,3.00234.00609l1.32374.00287a2.54507,2.54507,0,0,1,2.82921,2.37685,2.42482,2.42482,0,0,1-2.5274,2.47721H197.59372a19.85024,19.85024,0,0,1,.79228,5.25839Z" style="fill:#747678"/><path d="M13.08269,11.27005A13.60348,13.60348,0,0,0,7.84724,12.4583L5.82561,13.268V0H.1645V23.987A12.78094,12.78094,0,0,0,13.08269,36.90534a12.8192,12.8192,0,1,0,0-25.63528Zm0,20.12491a7.4163,7.4163,0,0,1-7.408-7.408,7.57619,7.57619,0,0,1,7.408-7.35745,7.48184,7.48184,0,0,1,7.408,7.35745A7.32917,7.32917,0,0,1,13.08269,31.395Z" style="fill:#747678"/><path d="M30.14755,19.55946V36.90534h5.812V18.65367c0-1.73452,1.83936-3.0303,3.48391-3.0303H42.299V10.2639H38.33623C33.27821,10.2639,30.14755,15.08893,30.14755,19.55946Z" style="fill:#747678"/><path d="M111.42141,43.11755V48.477H115.384c5.058,0,8.18868-4.825,8.18868-9.29556V10.96824h-5.6111V39.156a3.626,3.626,0,0,1-3.68482,3.96154Z" style="fill:#747678"/><rect x="75.80289" y="10.96824" width="5.66128" height="25.93709" style="fill:#747678"/><rect x="75.80289" y="10.96824" width="5.66128" height="25.93709" style="fill:#747678"/><path d="M107.1699,36.90534h5.61146V23.43353a13.09467,13.09467,0,0,0-26.1889,0v13.4718H92.3541V23.43353a7.40946,7.40946,0,0,1,14.81579,0Z" style="fill:#747678"/><path d="M140.78668,10.66607a13.11973,13.11973,0,1,0,13.06855,13.06927A12.93,12.93,0,0,0,140.78668,10.66607Zm0,20.47762a7.40817,7.40817,0,1,1,0-14.81633,7.32879,7.32879,0,0,1,7.40727,7.408A7.41622,7.41622,0,0,1,140.78668,31.14369Z" style="fill:#747678"/><path d="M70.36689,23.85112c.00269-.03835.00609-.07671.00609-.11578A12.92993,12.92993,0,0,0,57.30443,10.66607a13.11973,13.11973,0,1,0,0,26.23926,12.87284,12.87284,0,0,0,6.062-1.499l1.34542-.709v2.208H70.373V24.98023h-.02115l.005-.93841C70.35829,23.97765,70.36241,23.91457,70.36689,23.85112ZM57.30443,31.14369a7.40817,7.40817,0,1,1,0-14.81633,7.32894,7.32894,0,0,1,7.40745,7.408A7.41638,7.41638,0,0,1,57.30443,31.14369Z" style="fill:#747678"/><path d="M120.76751.6038A2.76868,2.76868,0,0,0,117.91178,3.409a2.83058,2.83058,0,1,0,5.66093,0A2.77542,2.77542,0,0,0,120.76751.6038Z" style="fill:#747678"/><path d="M78.78713.6038A2.76887,2.76887,0,0,0,75.931,3.409a2.83076,2.83076,0,1,0,5.66128,0A2.77531,2.77531,0,0,0,78.78713.6038Z" style="fill:#747678"/><path d="M189.761,24.01054A15.54477,15.54477,0,0,0,196.40124,11.341h-5.60192a9.962,9.962,0,0,1-9.21751,9.85471v5.62963a9.962,9.962,0,0,1,9.21751,9.85471h5.60192A15.54482,15.54482,0,0,0,189.761,24.01054Z" style="fill:#747678"/><path d="M169.73795,36.90534a13.56962,13.56962,0,0,0,9.00994-3.25487L175.054,29.76432a9.119,9.119,0,0,1-5.316,1.66607,7.51889,7.51889,0,1,1,0-15.03231,8.8577,8.8577,0,0,1,5.24426,1.73564l3.91361-3.79863a13.15857,13.15857,0,1,0-9.15787,22.57026Z" style="fill:#747678"/><path d="M298.93,118.42608a5.4959,5.4959,0,1,1-5.4929-5.4929,5.49343,5.49343,0,0,1,5.4929,5.4929" style="fill:#00add0"/><path d="M282.44827,118.42608a5.4944,5.4944,0,1,1-5.4959-5.4929,5.49407,5.49407,0,0,1,5.4959,5.4929" style="fill:#00add0"/><path d="M315.41169,118.42608a5.49515,5.49515,0,1,1-5.48991-5.4929,5.4928,5.4928,0,0,1,5.48991,5.4929" style="fill:#00add0"/></g></g></svg>