<svg xmlns="http://www.w3.org/2000/svg" width="22" height="22" viewBox="0 0 22 22">
  <path fill="#F0F0F0" fill-rule="evenodd" d="M9.07257855,11 L0.399182052,2.3266035 C-0.133060684,1.79436076 -0.133060684,0.931424787 0.399182052,0.399182052 C0.931424787,-0.133060684 1.79436076,-0.133060684 2.3266035,0.399182052 L11,9.07257855 L19.6733965,0.399182052 C20.2056392,-0.133060684 21.0685752,-0.133060684 21.6008179,0.399182052 C22.1330607,0.931424787 22.1330607,1.79436076 21.6008179,2.3266035 L12.9274214,11 L21.6008179,19.6733965 C22.1330607,20.2056392 22.1330607,21.0685752 21.6008179,21.6008179 C21.0685752,22.1330607 20.2056392,22.1330607 19.6733965,21.6008179 L11,12.9274214 L2.3266035,21.6008179 C1.79436076,22.1330607 0.931424787,22.1330607 0.399182052,21.6008179 C-0.133060684,21.0685752 -0.133060684,20.2056392 0.399182052,19.6733965 L9.07257855,11 Z"/>
</svg>
